<mxfile host="65bd71144e">
    <diagram id="Joiml3ppnFBbgDe5UD2-" name="Page-1">
        <mxGraphModel dx="954" dy="766" grid="1" gridSize="10" guides="1" tooltips="1" connect="1" arrows="1" fold="1" page="1" pageScale="1" pageWidth="850" pageHeight="1100" math="0" shadow="0">
            <root>
                <mxCell id="0"/>
                <mxCell id="1" parent="0"/>
                <mxCell id="2" value="&lt;h1&gt;Placement Groyup Partition&lt;/h1&gt;&lt;h1&gt;&lt;div style=&quot;font-size: 12px; font-weight: 400;&quot;&gt;Features:&lt;br&gt;&lt;ul&gt;&lt;li&gt;Up to 7 partitions per AZ&lt;/li&gt;&lt;li&gt;Can span across multiple AZs in the same region&lt;/li&gt;&lt;li&gt;Up to 100s of EC2 instances&lt;/li&gt;&lt;li&gt;The instances in a partition do not share racks with the instances in the other partitions&lt;/li&gt;&lt;li&gt;A partition failure can affect many EC2 but won't affect other partitions&lt;/li&gt;&lt;li&gt;EC2 instances get access to the partition information as metadata&lt;/li&gt;&lt;/ul&gt;&lt;div&gt;Use cases: HDFS, HBase, Cassandra, Kafka&lt;/div&gt;&lt;/div&gt;&lt;/h1&gt;" style="text;html=1;strokeColor=none;fillColor=none;spacing=5;spacingTop=-20;whiteSpace=wrap;overflow=hidden;rounded=0;" parent="1" vertex="1">
                    <mxGeometry x="90" y="30" width="560" height="230" as="geometry"/>
                </mxCell>
                <mxCell id="3" value="" style="rounded=1;arcSize=10;dashed=1;strokeColor=#F59D56;fillColor=none;gradientColor=none;dashPattern=8 4;strokeWidth=2;" parent="1" vertex="1">
                    <mxGeometry x="50" y="270" width="430" height="380" as="geometry"/>
                </mxCell>
                <mxCell id="4" value="us-east-1a" style="text;html=1;strokeColor=none;fillColor=none;align=center;verticalAlign=middle;whiteSpace=wrap;rounded=0;" parent="1" vertex="1">
                    <mxGeometry x="235" y="270" width="60" height="30" as="geometry"/>
                </mxCell>
                <mxCell id="9" value="" style="rounded=1;arcSize=10;dashed=1;strokeColor=#F59D56;fillColor=none;gradientColor=none;dashPattern=8 4;strokeWidth=2;" parent="1" vertex="1">
                    <mxGeometry x="500" y="270" width="170" height="380" as="geometry"/>
                </mxCell>
                <mxCell id="10" value="us-east-1b" style="text;html=1;strokeColor=none;fillColor=none;align=center;verticalAlign=middle;whiteSpace=wrap;rounded=0;" parent="1" vertex="1">
                    <mxGeometry x="555" y="270" width="60" height="30" as="geometry"/>
                </mxCell>
                <mxCell id="13" value="" style="rounded=0;whiteSpace=wrap;html=1;fillColor=#1ba1e2;fontColor=#ffffff;strokeColor=#006EAF;" parent="1" vertex="1">
                    <mxGeometry x="95" y="300" width="120" height="320" as="geometry"/>
                </mxCell>
                <mxCell id="14" value="EC2" style="rounded=0;whiteSpace=wrap;html=1;fillColor=#f0a30a;fontColor=#000000;strokeColor=#BD7000;" parent="1" vertex="1">
                    <mxGeometry x="110" y="330" width="90" height="60" as="geometry"/>
                </mxCell>
                <mxCell id="15" value="" style="rounded=0;whiteSpace=wrap;html=1;fillColor=#1ba1e2;fontColor=#ffffff;strokeColor=#006EAF;" parent="1" vertex="1">
                    <mxGeometry x="320" y="300" width="120" height="320" as="geometry"/>
                </mxCell>
                <mxCell id="16" value="EC2" style="rounded=0;whiteSpace=wrap;html=1;fillColor=#f0a30a;fontColor=#000000;strokeColor=#BD7000;" parent="1" vertex="1">
                    <mxGeometry x="335" y="330" width="90" height="60" as="geometry"/>
                </mxCell>
                <mxCell id="17" value="" style="rounded=0;whiteSpace=wrap;html=1;fillColor=#1ba1e2;fontColor=#ffffff;strokeColor=#006EAF;" parent="1" vertex="1">
                    <mxGeometry x="525" y="300" width="120" height="320" as="geometry"/>
                </mxCell>
                <mxCell id="18" value="EC2" style="rounded=0;whiteSpace=wrap;html=1;fillColor=#f0a30a;fontColor=#000000;strokeColor=#BD7000;" parent="1" vertex="1">
                    <mxGeometry x="540" y="330" width="90" height="60" as="geometry"/>
                </mxCell>
                <mxCell id="25" value="Partition 1" style="text;html=1;strokeColor=none;fillColor=none;align=center;verticalAlign=middle;whiteSpace=wrap;rounded=0;" parent="1" vertex="1">
                    <mxGeometry x="120" y="300" width="70" height="30" as="geometry"/>
                </mxCell>
                <mxCell id="26" value="Partition 2" style="text;html=1;strokeColor=none;fillColor=none;align=center;verticalAlign=middle;whiteSpace=wrap;rounded=0;" parent="1" vertex="1">
                    <mxGeometry x="345" y="300" width="70" height="30" as="geometry"/>
                </mxCell>
                <mxCell id="27" value="Partition 3" style="text;html=1;strokeColor=none;fillColor=none;align=center;verticalAlign=middle;whiteSpace=wrap;rounded=0;" parent="1" vertex="1">
                    <mxGeometry x="550" y="300" width="70" height="30" as="geometry"/>
                </mxCell>
                <mxCell id="30" value="EC2" style="rounded=0;whiteSpace=wrap;html=1;fillColor=#f0a30a;fontColor=#000000;strokeColor=#BD7000;" vertex="1" parent="1">
                    <mxGeometry x="110" y="400" width="90" height="60" as="geometry"/>
                </mxCell>
                <mxCell id="31" value="EC2" style="rounded=0;whiteSpace=wrap;html=1;fillColor=#f0a30a;fontColor=#000000;strokeColor=#BD7000;" vertex="1" parent="1">
                    <mxGeometry x="110" y="470" width="90" height="60" as="geometry"/>
                </mxCell>
                <mxCell id="32" value="EC2" style="rounded=0;whiteSpace=wrap;html=1;fillColor=#f0a30a;fontColor=#000000;strokeColor=#BD7000;" vertex="1" parent="1">
                    <mxGeometry x="110" y="540" width="90" height="60" as="geometry"/>
                </mxCell>
                <mxCell id="34" value="EC2" style="rounded=0;whiteSpace=wrap;html=1;fillColor=#f0a30a;fontColor=#000000;strokeColor=#BD7000;" vertex="1" parent="1">
                    <mxGeometry x="335" y="400" width="90" height="60" as="geometry"/>
                </mxCell>
                <mxCell id="35" value="EC2" style="rounded=0;whiteSpace=wrap;html=1;fillColor=#f0a30a;fontColor=#000000;strokeColor=#BD7000;" vertex="1" parent="1">
                    <mxGeometry x="335" y="470" width="90" height="60" as="geometry"/>
                </mxCell>
                <mxCell id="36" value="EC2" style="rounded=0;whiteSpace=wrap;html=1;fillColor=#f0a30a;fontColor=#000000;strokeColor=#BD7000;" vertex="1" parent="1">
                    <mxGeometry x="335" y="540" width="90" height="60" as="geometry"/>
                </mxCell>
                <mxCell id="37" value="EC2" style="rounded=0;whiteSpace=wrap;html=1;fillColor=#f0a30a;fontColor=#000000;strokeColor=#BD7000;" vertex="1" parent="1">
                    <mxGeometry x="540" y="400" width="90" height="60" as="geometry"/>
                </mxCell>
                <mxCell id="38" value="EC2" style="rounded=0;whiteSpace=wrap;html=1;fillColor=#f0a30a;fontColor=#000000;strokeColor=#BD7000;" vertex="1" parent="1">
                    <mxGeometry x="540" y="470" width="90" height="60" as="geometry"/>
                </mxCell>
                <mxCell id="39" value="EC2" style="rounded=0;whiteSpace=wrap;html=1;fillColor=#f0a30a;fontColor=#000000;strokeColor=#BD7000;" vertex="1" parent="1">
                    <mxGeometry x="540" y="540" width="90" height="60" as="geometry"/>
                </mxCell>
            </root>
        </mxGraphModel>
    </diagram>
</mxfile>